<svg width="45" height="53" viewBox="0 0 45 53" fill="none" xmlns="http://www.w3.org/2000/svg">
  <mask id="mask0_166_117" style="mask-type:luminance" maskUnits="userSpaceOnUse" x="0" y="0"
    width="45" height="53">
    <path d="M44.332 0.758789H0.00195312V52.2988H44.332V0.758789Z" fill="black" />
    <path
      d="M29.1708 2.82065C27.4174 4.15357 26.0563 6.33694 26.0563 7.73169C26.0563 8.82337 29.7073 12.7015 30.8274 12.8222C31.5576 12.884 31.6545 12.2778 31.5576 8.45847C31.5079 6.09569 31.6545 4.09478 31.8506 4.09478C32.094 4.09478 32.5312 5.79261 32.8242 7.85232C33.2614 11.0037 33.2141 11.8541 32.6305 13.0046C31.7065 14.7612 30.4895 14.7612 28.7858 13.1252C27.6184 11.9748 27.5191 11.9748 27.5191 13.0046C27.5191 14.5818 26.2525 16.7034 24.5983 17.7332C23.8185 18.2187 20.9474 19.0073 18.1731 19.4898C15.3988 19.9754 12.3315 20.8228 11.3579 21.3083C8.92395 22.5824 7.46356 22.5206 5.9063 21.0052C3.32579 18.5188 2.49872 14.4582 3.90946 11.3686C4.8334 9.3089 4.78618 8.33784 3.76293 8.33784C0.842151 8.33784 -0.764766 15.6117 1.1352 20.2784C2.20567 22.8855 4.49313 25.5514 6.1497 26.2193C7.07364 26.5842 7.12329 26.9461 6.83024 31.5541C6.63649 34.2818 6.05039 37.7362 5.56359 39.1928C4.54035 42.1617 4.3466 47.1346 5.17367 50.1036C5.66047 51.8602 5.85421 51.9838 8.0448 51.9838C9.35866 51.9838 10.5757 51.7426 10.7222 51.3777C11.1593 50.5303 10.0889 48.3469 9.26179 48.3469C8.72534 48.3469 8.5316 47.6789 8.5316 46.0429C8.5316 44.1627 8.87187 43.3153 10.285 41.6174C12.8159 38.5867 14.0329 36.3445 14.6662 33.2519L15.2499 30.4624L15.5902 32.4015C15.9304 34.1581 16.1266 34.4024 17.5373 34.4024C18.4141 34.4024 20.0682 34.8261 21.1883 35.3116C23.816 36.4621 23.6223 36.5239 23.6223 34.523C23.6223 33.552 23.9154 32.3397 24.2556 31.7953C24.7424 30.9479 24.8393 31.7335 24.9362 36.6445C25.033 44.4627 25.5198 49.7974 26.25 51.0716C26.7865 51.9808 27.467 52.0426 31.8482 51.6777C36.5224 51.254 36.813 51.1334 36.6665 49.9211C36.5696 49.2531 35.8867 48.2851 35.1092 47.8614L33.7457 47.014L34.4263 34.8909L32.7225 36.2857C30.8249 37.8629 30.435 39.2546 30.435 44.8337C30.435 47.4407 30.2885 48.35 29.8514 48.1675C29.4142 47.9851 29.218 46.7727 29.2677 44.5924C29.3646 38.4103 29.8041 37.0155 32.1885 34.9558C33.3558 33.926 34.9155 32.0457 35.596 30.7746C36.7634 28.653 36.813 28.0469 36.6665 22.2884C36.52 16.4094 36.5696 16.0445 37.6898 14.9528C38.3231 14.3466 39.4432 13.8023 40.2206 13.8023C41.8275 13.8023 43.4345 12.1045 43.8716 9.92414C44.408 7.13463 43.9685 6.2254 41.7307 5.86353C40.4168 5.68108 39.1998 4.9543 38.2262 3.80383C36.9596 2.28844 36.279 1.98537 33.6985 1.80292C31.3142 1.68229 30.3406 1.86474 29.1708 2.83277V2.82065Z"
      fill="white" />
    <path
      d="M15.3963 36.3415C15.1529 36.7652 14.0328 38.3424 12.9624 39.8578C11.0648 42.5855 11.0648 42.6473 11.502 45.5544C12.1825 50.0387 13.0592 51.3747 15.3467 51.3747C16.3699 51.3747 17.3907 51.0716 17.5373 50.7685C18.0241 49.7387 17.3907 48.0409 16.2234 47.4347C14.5693 46.5255 14.5196 43.8596 16.0769 41.6144C17.6838 39.1898 18.8039 36.4621 18.414 35.9766C17.8775 35.3086 15.8831 35.5529 15.3963 36.3415Z"
      fill="white" />
  </mask>
  <g mask="url(#mask0_166_117)">
    <path d="M44.332 0.758789H0.00195312V52.2988H44.332V0.758789Z" fill="#FFF286" />
  </g>
</svg>
  