<svg width="25" height="25" viewBox="0 0 16 16" fill="none" xmlns="http://www.w3.org/2000/svg">
	<path
		d="M12.3333 9.6666V11.9999H4V9.6666H6.08417C6.53276 9.95346 7.09042 10.1994 7.7144 10.3666C8.49404 10.5755 9.41219 10.6262 10.0263 10.5408V9.6666H12.3333ZM11.8333 10.1666H11.25V11.1666H11.8333L11.8333 10.1666ZM9.63017 10.1646C9.08585 10.2403 8.41975 10.1121 7.72869 9.92691C6.5656 9.61525 5.66242 8.99483 5.37185 8.37786L6.79794 6.95178L9.63017 8.01388V10.1646ZM8.27168 5.93085C8.34423 5.93085 8.41552 5.93552 8.4852 5.94451L9.68522 3.58936L10.3308 3.91828L9.16722 6.2019C9.50429 6.43407 9.72074 6.7943 9.72074 7.19879C9.72074 7.37249 9.68082 7.53803 9.60857 7.68879L7.03476 6.68965C7.25886 6.24289 7.67836 5.93085 8.27168 5.93085Z"
		fill="black" />
</svg>
	