<svg width="150" height="60" viewBox="0 0 940 300" fill="none" xmlns="http://www.w3.org/2000/svg">
  <mask id="mask0_0_1" style="mask-type:luminance" maskUnits="userSpaceOnUse" x="379" y="-9"
    width="181" height="181">
    <path d="M559.65 -9H379.847V171.027H559.65V-9Z" fill="black" />
    <path
      d="M544.667 81.0142C544.667 61.1447 536.774 42.089 522.724 28.0392C508.674 13.9893 489.619 6.09619 469.749 6.09619C449.88 6.09619 430.824 13.9893 416.774 28.0392C402.724 42.089 394.831 61.1447 394.831 81.0142C394.831 100.884 402.724 119.939 416.774 133.989C430.824 148.039 449.88 155.932 469.749 155.932C489.619 155.932 508.674 148.039 522.724 133.989C536.774 119.939 544.667 100.884 544.667 81.0142Z"
      fill="white" />
  </mask>
  <g mask="url(#mask0_0_1)">
    <path d="M559.65 -9H379.847V171.027H559.65V-9Z" fill="#F8971D" />
  </g>
  <mask id="mask1_0_1" style="mask-type:luminance" maskUnits="userSpaceOnUse" x="10" y="183"
    width="919" height="106">
    <path d="M928.964 183.64H10.5341V288.984H928.964V183.64Z" fill="black" />
    <path
      d="M53.857 199.838C57.2057 199.838 60.0407 200.39 62.362 201.493C64.6834 202.596 66.605 204.004 68.127 205.717C69.649 207.429 70.8284 209.294 71.665 211.31C72.5024 213.328 73.1304 215.23 73.549 217.018C73.9677 218.807 74.215 220.367 74.291 221.699C74.367 223.03 74.405 223.849 74.405 224.153C74.481 223.621 74.6334 222.65 74.862 221.242C75.09 219.834 75.5087 218.217 76.118 216.39C76.7267 214.564 77.5257 212.662 78.515 210.683C79.5044 208.704 80.779 206.896 82.339 205.26C83.899 203.624 85.7827 202.274 87.99 201.208C90.1967 200.142 92.822 199.609 95.866 199.609C99.5954 199.609 102.849 200.523 105.627 202.349C108.404 204.176 110.706 206.193 112.533 208.399C114.664 210.911 116.49 213.803 118.013 217.075C120.068 221.87 121.647 226.645 122.75 231.402C123.853 236.158 124.671 240.477 125.204 244.358C125.813 248.925 126.156 253.301 126.232 257.486C126.308 260.683 126.137 263.499 125.718 265.934C125.299 268.37 124.71 270.462 123.949 272.212C123.188 273.963 122.293 275.428 121.266 276.607C120.239 277.787 119.154 278.758 118.013 279.518C115.425 281.269 112.457 282.182 109.108 282.258C106.14 282.258 103.534 281.744 101.289 280.717C99.0437 279.69 97.103 278.32 95.467 276.607C93.831 274.895 92.461 272.954 91.357 270.785C90.2537 268.616 89.3597 266.391 88.675 264.107C87.0004 258.78 86.125 252.73 86.049 245.957C85.6684 250.447 84.8884 253.833 83.709 256.116C82.529 258.399 81.2924 259.998 79.999 260.911C78.477 262.053 76.8027 262.547 74.976 262.395C72.008 262.395 69.6867 261.539 68.012 259.826C66.338 258.114 65.0824 256.193 64.245 254.062C63.2557 251.627 62.647 248.849 62.419 245.728C62.419 250.371 62.1337 254.462 61.563 258C60.9924 261.539 60.2504 264.583 59.337 267.132C58.4237 269.682 57.377 271.832 56.197 273.582C55.0177 275.333 53.819 276.779 52.601 277.92C49.7097 280.507 46.4374 281.954 42.784 282.258C39.892 282.258 37.3997 281.916 35.307 281.231C33.2144 280.546 31.407 279.651 29.885 278.548C28.3624 277.445 27.1064 276.17 26.117 274.724C25.1277 273.278 24.3287 271.794 23.72 270.272C22.35 266.695 21.665 262.661 21.665 258.171C21.665 252.007 22.1027 246.357 22.978 241.219C23.8534 236.083 24.8237 231.649 25.889 227.92C27.183 223.582 28.629 219.663 30.227 216.162C32.2057 211.596 34.565 208.191 37.305 205.945C40.0444 203.7 42.6317 202.121 45.067 201.208C47.959 200.142 50.889 199.686 53.857 199.838ZM154.314 222.897C156.521 223.202 158.5 223.925 160.25 225.066C161.772 226.055 163.161 227.54 164.417 229.518C165.672 231.497 166.376 234.237 166.529 237.737C166.529 239.031 166.548 240.477 166.586 242.075C166.624 243.674 166.738 245.158 166.928 246.527C167.119 247.897 167.461 249.058 167.956 250.009C168.451 250.96 169.193 251.436 170.182 251.436C171.932 251.436 172.94 250.352 173.207 248.183C173.473 246.014 173.644 242.532 173.72 237.737C173.72 234.009 174.405 231.117 175.775 229.062C177.145 227.007 178.629 225.523 180.227 224.61C182.13 223.544 184.299 222.935 186.734 222.783C190.539 222.631 193.526 223.183 195.695 224.438C197.864 225.694 199.558 227.121 200.775 228.719C202.145 230.622 203.096 232.791 203.629 235.226C204.466 239.26 204.752 243.103 204.485 246.756C204.219 250.409 203.782 253.681 203.173 256.573C202.412 259.922 201.422 263.08 200.205 266.048C198.759 269.397 196.742 272.365 194.154 274.952C193.013 276.094 191.719 277.197 190.273 278.263C188.827 279.329 187.153 280.261 185.25 281.059C183.347 281.859 181.255 282.487 178.972 282.943C176.689 283.4 174.139 283.59 171.323 283.514C165.387 283.361 160.497 282.657 156.654 281.402C152.811 280.146 149.748 278.795 147.465 277.349C144.801 275.675 142.784 273.773 141.414 271.642C139.055 268.217 137.495 264.412 136.734 260.226C135.973 256.04 135.631 252.121 135.707 248.468C135.707 244.206 136.125 239.906 136.962 235.568C137.799 231.84 139.169 229.062 141.072 227.235C142.975 225.409 144.915 224.191 146.894 223.582C149.177 222.821 151.651 222.593 154.314 222.897ZM288.333 255.317C288.485 259.808 288.066 263.879 287.077 267.532C286.62 269.13 286.03 270.709 285.307 272.269C284.584 273.83 283.614 275.276 282.397 276.607C281.179 277.939 279.752 279.1 278.116 280.089C276.479 281.079 274.52 281.763 272.237 282.144C272.237 282.144 271.78 282.182 270.867 282.258C269.954 282.334 268.793 282.296 267.385 282.144C265.977 281.992 264.455 281.669 262.819 281.174C261.182 280.68 259.641 279.842 258.196 278.662C256.75 277.483 255.513 275.904 254.485 273.925C253.458 271.947 252.868 269.435 252.716 266.39C252.411 263.422 252.107 260.759 251.803 258.4C251.422 256.421 251.004 254.575 250.547 252.863C250.09 251.15 249.482 250.294 248.721 250.294C248.949 253.11 249.082 255.545 249.12 257.6C249.158 259.655 249.139 261.406 249.063 262.852C248.987 264.526 248.911 265.972 248.835 267.19C248.454 270.006 247.579 272.517 246.209 274.724C245.068 276.627 243.374 278.377 241.129 279.975C238.884 281.573 235.783 282.41 231.826 282.486C229.923 282.486 228.23 282.277 226.746 281.858C225.262 281.44 223.949 280.851 222.807 280.089C221.666 279.329 220.657 278.473 219.782 277.521C218.907 276.57 218.165 275.6 217.556 274.61C216.11 272.251 215.083 269.587 214.474 266.619C213.941 264.565 213.523 262.205 213.218 259.541C212.914 257.258 212.724 254.518 212.647 251.322C212.571 248.126 212.723 244.472 213.104 240.363C213.485 237.166 214.36 234.275 215.73 231.687C216.263 230.622 216.947 229.556 217.784 228.491C218.621 227.426 219.611 226.456 220.753 225.58C221.894 224.705 223.207 223.982 224.691 223.411C226.175 222.841 227.868 222.479 229.771 222.326C233.12 222.098 235.878 222.251 238.047 222.783C240.216 223.316 241.986 224.02 243.355 224.895C244.725 225.771 245.772 226.722 246.495 227.749C247.218 228.777 247.845 229.747 248.378 230.66C255.227 226.931 261.468 225.181 267.1 225.409C269.459 225.485 271.818 225.999 274.177 226.95C276.536 227.902 278.686 229.5 280.627 231.744C282.568 233.99 284.223 237.015 285.593 240.82C286.963 244.625 287.876 249.457 288.333 255.317ZM368.926 278.148C366.947 280.204 364.836 281.402 362.591 281.744C360.346 282.087 358.234 282.049 356.255 281.63C354.276 281.212 352.64 280.66 351.346 279.975C350.053 279.29 349.406 278.948 349.406 278.948C346.438 280.47 343.165 281.65 339.588 282.486C336.011 283.324 332.378 283.818 328.687 283.97C324.996 284.123 321.4 283.894 317.899 283.285C314.398 282.676 311.278 281.649 308.538 280.203C306.711 279.138 304.999 277.882 303.401 276.436C302.031 275.142 300.642 273.563 299.234 271.699C297.827 269.834 296.818 267.609 296.209 265.021C295.6 262.662 295.201 260.055 295.011 257.201C294.82 254.347 294.953 251.436 295.41 248.468C295.867 245.5 296.704 242.627 297.922 239.849C299.139 237.072 300.89 234.618 303.173 232.486C306.674 229.214 310.346 227.045 314.189 225.979C318.032 224.914 321.59 224.381 324.862 224.381C328.667 224.457 332.397 225.028 336.05 226.094C335.213 220.386 335.098 215.287 335.707 210.797C335.936 208.895 336.354 207.011 336.963 205.146C337.572 203.282 338.428 201.626 339.531 200.18C340.635 198.734 342.043 197.574 343.755 196.698C345.468 195.824 347.542 195.386 349.977 195.386C352.108 195.386 354.01 195.691 355.684 196.299C357.359 196.908 358.843 197.707 360.136 198.696C361.43 199.685 362.553 200.808 363.504 202.064C364.455 203.32 365.235 204.594 365.844 205.888C367.29 208.932 368.241 212.433 368.698 216.39C369.155 220.576 369.383 224.914 369.383 229.404C369.383 233.286 369.136 237.605 368.641 242.361C368.146 247.117 367.252 251.893 365.958 256.687C368.165 257.753 369.821 259.199 370.924 261.025C372.027 262.852 372.655 264.793 372.808 266.847C372.96 268.902 372.694 270.937 372.009 272.954C371.324 274.971 370.296 276.702 368.926 278.148ZM335.479 249.838C334.185 249.838 333.062 250.333 332.111 251.322C331.16 252.312 330.76 253.415 330.913 254.632C331.065 256.231 331.541 257.335 332.34 257.943C333.139 258.552 334.185 258.856 335.479 258.856C336.772 258.856 337.838 258.476 338.675 257.715C339.512 256.954 339.931 255.926 339.931 254.632C339.931 253.415 339.55 252.312 338.789 251.322C338.028 250.333 336.925 249.838 335.479 249.838ZM437.306 268.331C436.088 270.539 434.661 272.46 433.025 274.096C431.388 275.732 429.809 277.083 428.287 278.148C426.537 279.442 424.749 280.47 422.922 281.231C421.4 281.84 419.935 282.316 418.527 282.658C417.119 283 415.882 283.248 414.817 283.4C413.523 283.628 412.381 283.742 411.392 283.742C407.207 283.742 403.535 283.324 400.376 282.486C397.218 281.65 394.459 280.565 392.1 279.233C389.741 277.901 387.743 276.36 386.107 274.61C384.47 272.86 383.157 271.071 382.168 269.244C379.657 265.059 378.287 260.227 378.059 254.747C378.059 250.333 378.535 246.509 379.486 243.274C380.437 240.04 381.693 237.262 383.253 234.941C384.813 232.62 386.601 230.698 388.618 229.176C390.635 227.654 392.671 226.437 394.726 225.523C399.596 223.392 405.151 222.441 411.392 222.669C415.045 222.669 418.28 223.088 421.095 223.925C423.911 224.762 426.365 225.865 428.458 227.235C430.551 228.605 432.302 230.146 433.71 231.858C435.117 233.571 436.278 235.341 437.191 237.167C439.322 241.353 440.54 246.147 440.844 251.55C440.844 255.128 440.521 258.286 439.874 261.025C439.227 263.765 438.371 266.201 437.306 268.331ZM410.707 250.294C409.414 250.294 408.291 250.789 407.34 251.779C406.389 252.769 405.989 253.872 406.141 255.089C406.293 256.687 406.769 257.791 407.568 258.4C408.367 259.009 409.414 259.313 410.707 259.313C412.001 259.313 413.067 258.933 413.904 258.171C414.741 257.411 415.159 256.383 415.159 255.089C415.159 253.872 414.779 252.769 414.018 251.779C413.257 250.789 412.153 250.294 410.707 250.294ZM548.151 232.943C545.792 232.563 543.661 232.524 541.758 232.829C540.16 233.133 538.676 233.78 537.306 234.769C535.936 235.758 535.175 237.471 535.023 239.906C534.946 241.733 535.365 243.331 536.278 244.701C537.115 245.843 538.447 246.813 540.274 247.612C542.101 248.411 544.84 248.62 548.493 248.24C551.918 247.86 555 248.012 557.74 248.696C558.881 249.001 560.042 249.42 561.221 249.952C562.401 250.485 563.467 251.227 564.418 252.178C565.369 253.129 566.206 254.309 566.929 255.717C567.652 257.125 568.128 258.78 568.356 260.683C568.508 262.966 568.318 265.173 567.785 267.304C567.328 269.13 566.472 271.071 565.217 273.126C563.961 275.181 562.001 276.931 559.338 278.377C556.522 279.899 553.135 281.003 549.178 281.687C545.753 282.297 541.568 282.525 536.621 282.372C531.674 282.22 525.852 281.231 519.155 279.404C514.436 277.882 510.251 275.447 506.598 272.098C505 270.652 503.459 268.959 501.975 267.018C500.491 265.078 499.178 262.795 498.036 260.169C496.895 257.544 496.001 254.557 495.354 251.208C494.707 247.86 494.459 244.131 494.612 240.021C494.688 234.085 495.753 228.529 497.808 223.354C498.721 221.147 499.882 218.921 501.29 216.676C502.698 214.431 504.486 212.319 506.655 210.34C508.824 208.361 511.373 206.573 514.303 204.975C517.233 203.376 520.677 202.121 524.634 201.208C528.515 200.295 532.549 199.8 536.735 199.724C540.236 199.648 544.098 199.971 548.322 200.694C552.545 201.417 556.636 202.958 560.593 205.317C562.648 206.763 564.285 208.514 565.502 210.568C566.035 211.482 566.491 212.49 566.872 213.594C567.253 214.698 567.5 215.896 567.614 217.189C567.728 218.483 567.671 219.891 567.443 221.413C567.214 222.935 566.72 224.572 565.959 226.322C565.122 228.072 563.942 229.518 562.42 230.66C561.126 231.649 559.319 232.449 556.998 233.057C554.677 233.666 551.728 233.628 548.151 232.943ZM598.379 223.011C602.412 222.631 605.723 222.84 608.31 223.639C610.898 224.438 612.934 225.409 614.418 226.55C615.902 227.692 616.948 228.814 617.557 229.918C618.166 231.021 618.508 231.687 618.584 231.915C618.584 231.839 618.793 231.288 619.212 230.26C619.631 229.233 620.335 228.111 621.324 226.893C622.313 225.675 623.645 224.59 625.32 223.639C626.994 222.688 629.087 222.212 631.598 222.212C633.729 222.212 635.594 222.631 637.192 223.468C638.79 224.306 640.198 225.409 641.416 226.778C642.633 228.148 643.661 229.709 644.498 231.459C645.335 233.209 646.02 234.997 646.553 236.824C647.846 241.086 648.569 245.919 648.722 251.322C648.95 255.66 648.874 259.446 648.493 262.68C648.112 265.915 647.561 268.693 646.838 271.014C646.115 273.335 645.258 275.276 644.269 276.836C643.28 278.396 642.252 279.633 641.187 280.546C638.676 282.753 635.746 283.78 632.397 283.628C630.342 283.704 628.402 283.362 626.575 282.601C625.053 281.992 623.569 280.945 622.123 279.461C620.677 277.977 619.764 275.789 619.384 272.897C618.623 275.18 617.253 277.121 615.274 278.719C613.6 280.089 611.241 281.269 608.196 282.258C605.152 283.248 601.119 283.438 596.096 282.829C591.986 282.372 588.333 281.155 585.137 279.176C583.767 278.339 582.416 277.273 581.084 275.979C579.753 274.686 578.573 273.088 577.546 271.185C576.518 269.283 575.7 267.076 575.091 264.564C574.482 262.053 574.178 259.161 574.178 255.888C574.026 250.18 574.749 245.005 576.347 240.363C577.032 238.384 577.945 236.425 579.087 234.484C580.228 232.544 581.674 230.774 583.425 229.176C585.175 227.578 587.268 226.227 589.703 225.123C592.138 224.02 595.03 223.316 598.379 223.011ZM613.562 249.838C612.268 249.838 611.145 250.333 610.194 251.322C609.243 252.312 608.843 253.415 608.995 254.632C609.148 256.231 609.623 257.335 610.422 257.943C611.221 258.552 612.268 258.856 613.562 258.856C614.855 258.856 615.921 258.476 616.758 257.715C617.595 256.954 618.014 255.926 618.014 254.632C618.014 253.415 617.633 252.312 616.872 251.322C616.111 250.333 615.008 249.838 613.562 249.838ZM730.914 255.317C731.066 259.808 730.647 263.879 729.658 267.532C729.201 269.13 728.611 270.709 727.888 272.269C727.165 273.83 726.195 275.276 724.977 276.607C723.76 277.939 722.333 279.1 720.697 280.089C719.06 281.079 717.101 281.763 714.818 282.144C714.818 282.144 714.361 282.182 713.448 282.258C712.535 282.334 711.374 282.296 709.966 282.144C708.558 281.992 707.036 281.669 705.4 281.174C703.763 280.68 702.222 279.842 700.776 278.662C699.331 277.483 698.094 275.904 697.066 273.925C696.039 271.947 695.449 269.435 695.297 266.39C694.992 263.422 694.688 260.759 694.384 258.4C694.003 256.421 693.585 254.575 693.128 252.863C692.671 251.15 692.063 250.294 691.302 250.294C691.53 253.11 691.663 255.545 691.701 257.6C691.739 259.655 691.72 261.406 691.644 262.852C691.568 264.526 691.492 265.972 691.416 267.19C691.035 270.006 690.16 272.517 688.79 274.724C687.649 276.627 685.955 278.377 683.71 279.975C681.465 281.573 678.364 282.41 674.407 282.486C672.504 282.486 670.811 282.277 669.327 281.858C667.843 281.44 666.53 280.851 665.388 280.089C664.247 279.329 663.238 278.473 662.363 277.521C661.488 276.57 660.746 275.6 660.137 274.61C658.691 272.251 657.664 269.587 657.055 266.619C656.522 264.565 656.104 262.205 655.799 259.541C655.495 257.258 655.305 254.518 655.228 251.322C655.152 248.126 655.304 244.472 655.685 240.363C656.066 237.166 656.941 234.275 658.311 231.687C658.844 230.622 659.528 229.556 660.365 228.491C661.202 227.426 662.192 226.456 663.333 225.58C664.475 224.705 665.788 223.982 667.272 223.411C668.756 222.841 670.449 222.479 672.352 222.326C675.701 222.098 678.459 222.251 680.628 222.783C682.797 223.316 684.566 224.02 685.936 224.895C687.306 225.771 688.353 226.722 689.076 227.749C689.799 228.777 690.426 229.747 690.959 230.66C697.808 226.931 704.049 225.181 709.681 225.409C712.04 225.485 714.399 225.999 716.758 226.95C719.117 227.902 721.267 229.5 723.208 231.744C725.149 233.99 726.804 237.015 728.174 240.82C729.544 244.625 730.457 249.457 730.914 255.317ZM767.557 205.888C767.71 207.562 767.501 209.199 766.93 210.797C766.359 212.395 765.521 213.822 764.418 215.078C763.315 216.334 761.964 217.361 760.366 218.16C758.767 218.959 757.017 219.473 755.114 219.701C753.135 219.929 751.29 219.796 749.578 219.301C747.865 218.807 746.324 218.065 744.955 217.075C743.585 216.086 742.462 214.887 741.587 213.479C740.712 212.071 740.16 210.492 739.932 208.742C739.779 207.068 739.989 205.45 740.56 203.89C741.131 202.33 741.987 200.923 743.128 199.667C744.269 198.411 745.639 197.364 747.238 196.527C748.836 195.69 750.586 195.158 752.489 194.929C754.392 194.701 756.199 194.834 757.911 195.329C759.624 195.824 761.165 196.566 762.535 197.555C763.904 198.545 765.046 199.762 765.959 201.208C766.872 202.654 767.405 204.214 767.557 205.888ZM772.466 270.043C771.857 273.468 770.678 276.074 768.927 277.863C767.177 279.652 765.389 280.965 763.562 281.801C761.355 282.715 758.995 283.209 756.484 283.285C753.212 283.438 750.548 283.001 748.493 281.973C746.438 280.946 744.802 279.785 743.585 278.491C742.215 277.045 741.111 275.333 740.274 273.354C738.752 269.245 737.858 265.002 737.592 260.626C737.325 256.25 737.382 252.235 737.763 248.582C738.144 244.397 738.829 240.287 739.818 236.253C740.731 232.753 742.082 230.108 743.87 228.32C745.659 226.532 747.428 225.218 749.178 224.381C751.233 223.468 753.402 222.973 755.685 222.897C759.186 222.745 762.021 223.335 764.19 224.667C766.359 225.999 768.09 227.539 769.384 229.29C770.83 231.269 771.895 233.628 772.58 236.368C773.113 238.879 773.531 241.809 773.836 245.157C774.064 248.049 774.121 251.569 774.007 255.717C773.893 259.864 773.379 264.64 772.466 270.043ZM857.055 255.317C857.208 259.808 856.789 263.879 855.8 267.532C855.343 269.13 854.753 270.709 854.03 272.269C853.307 273.83 852.337 275.276 851.119 276.607C849.902 277.939 848.475 279.1 846.838 280.089C845.202 281.079 843.242 281.763 840.959 282.144C840.959 282.144 840.503 282.182 839.59 282.258C838.677 282.334 837.516 282.296 836.108 282.144C834.7 281.992 833.178 281.669 831.542 281.174C829.905 280.68 828.364 279.842 826.918 278.662C825.472 277.483 824.235 275.904 823.208 273.925C822.181 271.947 821.591 269.435 821.439 266.39C821.134 263.422 820.83 260.759 820.526 258.4C820.145 256.421 819.727 254.575 819.27 252.863C818.813 251.15 818.204 250.294 817.443 250.294C817.672 253.11 817.805 255.545 817.843 257.6C817.881 259.655 817.862 261.406 817.786 262.852C817.71 264.526 817.634 265.972 817.558 267.19C817.177 270.006 816.302 272.517 814.932 274.724C813.791 276.627 812.097 278.377 809.852 279.975C807.607 281.573 804.505 282.41 800.548 282.486C798.645 282.486 796.952 282.277 795.468 281.858C793.984 281.44 792.671 280.851 791.53 280.089C790.389 279.329 789.38 278.473 788.505 277.521C787.63 276.57 786.888 275.6 786.279 274.61C784.833 272.251 783.806 269.587 783.197 266.619C782.664 264.565 782.246 262.205 781.941 259.541C781.636 257.258 781.446 254.518 781.37 251.322C781.294 248.126 781.446 244.472 781.827 240.363C782.208 237.166 783.083 234.275 784.452 231.687C784.985 230.622 785.67 229.556 786.507 228.491C787.344 227.426 788.334 226.456 789.475 225.58C790.617 224.705 791.93 223.982 793.414 223.411C794.898 222.841 796.591 222.479 798.494 222.326C801.842 222.098 804.601 222.251 806.77 222.783C808.939 223.316 810.708 224.02 812.078 224.895C813.448 225.771 814.494 226.722 815.217 227.749C815.94 228.777 816.568 229.747 817.101 230.66C823.95 226.931 830.191 225.181 835.822 225.409C838.181 225.485 840.541 225.999 842.9 226.95C845.259 227.902 847.409 229.5 849.35 231.744C851.291 233.99 852.946 237.015 854.316 240.82C855.685 244.625 856.598 249.457 857.055 255.317ZM920.64 268.331C919.422 270.539 917.995 272.46 916.359 274.096C914.723 275.732 913.144 277.083 911.622 278.148C909.871 279.442 908.083 280.47 906.256 281.231C904.734 281.84 903.269 282.316 901.861 282.658C900.453 283 899.216 283.248 898.151 283.4C896.858 283.628 895.716 283.742 894.727 283.742C890.541 283.742 886.869 283.324 883.711 282.486C880.552 281.65 877.793 280.565 875.434 279.233C873.075 277.901 871.078 276.36 869.441 274.61C867.805 272.86 866.492 271.071 865.503 269.244C862.992 265.059 861.622 260.227 861.393 254.747C861.393 250.333 861.869 246.509 862.82 243.274C863.771 240.04 865.027 237.262 866.587 234.941C868.147 232.62 869.936 230.698 871.953 229.176C873.97 227.654 876.005 226.437 878.06 225.523C882.931 223.392 888.486 222.441 894.727 222.669C898.38 222.669 901.614 223.088 904.43 223.925C907.246 224.762 909.7 225.865 911.793 227.235C913.886 228.605 915.636 230.146 917.044 231.858C918.452 233.571 919.613 235.341 920.526 237.167C922.657 241.353 923.874 246.147 924.179 251.55C924.179 255.128 923.855 258.286 923.208 261.025C922.561 263.765 921.705 266.201 920.64 268.331ZM894.042 250.294C892.748 250.294 891.625 250.789 890.674 251.779C889.723 252.769 889.323 253.872 889.475 255.089C889.628 256.687 890.103 257.791 890.902 258.4C891.701 259.009 892.748 259.313 894.042 259.313C895.335 259.313 896.401 258.933 897.238 258.171C898.075 257.411 898.494 256.383 898.494 255.089C898.494 253.872 898.113 252.769 897.352 251.779C896.591 250.789 895.488 250.294 894.042 250.294Z"
      fill="white" stroke="white" stroke-width="9.57" stroke-linecap="round" stroke-linejoin="round" />
    <path
      d="M47.695 193.676C51.0437 193.676 53.8787 194.228 56.2 195.331C58.5214 196.434 60.4431 197.842 61.9651 199.555C63.4871 201.267 64.6664 203.131 65.503 205.148C66.3404 207.165 66.9684 209.068 67.3871 210.856C67.8057 212.645 68.053 214.205 68.129 215.537C68.205 216.868 68.2431 217.686 68.2431 217.991C68.3191 217.458 68.4714 216.488 68.7 215.08C68.928 213.672 69.3467 212.055 69.9561 210.228C70.5647 208.402 71.3637 206.5 72.353 204.521C73.3424 202.542 74.6171 200.734 76.1771 199.098C77.7371 197.462 79.6207 196.111 81.828 195.046C84.0347 193.98 86.6601 193.447 89.7041 193.447C93.4334 193.447 96.6871 194.36 99.4651 196.187C102.242 198.014 104.544 200.03 106.371 202.237C108.502 204.749 110.328 207.641 111.851 210.913C113.906 215.708 115.485 220.483 116.588 225.24C117.691 229.996 118.509 234.315 119.042 238.196C119.651 242.763 119.994 247.139 120.07 251.324C120.146 254.521 119.975 257.337 119.556 259.772C119.137 262.207 118.548 264.3 117.787 266.05C117.026 267.801 116.131 269.266 115.104 270.445C114.077 271.625 112.992 272.595 111.851 273.356C109.263 275.107 106.295 276.02 102.946 276.096C99.9781 276.096 97.3717 275.582 95.127 274.555C92.8817 273.528 90.9411 272.158 89.3051 270.445C87.6691 268.733 86.2991 266.792 85.1951 264.623C84.0917 262.454 83.1977 260.228 82.513 257.945C80.8384 252.618 79.9631 246.568 79.8871 239.795C79.5064 244.285 78.7264 247.671 77.547 249.954C76.367 252.237 75.1304 253.836 73.837 254.749C72.315 255.89 70.6407 256.385 68.8141 256.233C65.8461 256.233 63.5247 255.377 61.85 253.664C60.176 251.952 58.9204 250.031 58.083 247.9C57.0937 245.465 56.4851 242.687 56.2571 239.566C56.2571 244.209 55.9717 248.299 55.4011 251.838C54.8304 255.377 54.0884 258.421 53.1751 260.97C52.2617 263.52 51.2151 265.67 50.0351 267.42C48.8557 269.171 47.6571 270.617 46.4391 271.758C43.5477 274.345 40.2754 275.791 36.6221 276.096C33.7301 276.096 31.2377 275.754 29.1451 275.069C27.0524 274.384 25.245 273.489 23.723 272.386C22.2004 271.283 20.9444 270.008 19.9551 268.562C18.9657 267.116 18.1667 265.632 17.558 264.11C16.188 260.533 15.5031 256.499 15.5031 252.009C15.5031 245.845 15.9407 240.194 16.8161 235.057C17.6914 229.92 18.6617 225.487 19.7271 221.758C21.0211 217.42 22.4671 213.501 24.0651 210C26.0437 205.434 28.4031 202.028 31.1431 199.783C33.8824 197.538 36.4697 195.959 38.905 195.046C41.797 193.98 44.727 193.523 47.695 193.676ZM148.152 216.735C150.359 217.04 152.338 217.763 154.088 218.904C155.61 219.893 156.999 221.377 158.255 223.356C159.51 225.335 160.214 228.074 160.367 231.575C160.367 232.869 160.386 234.315 160.424 235.913C160.462 237.512 160.576 238.996 160.766 240.365C160.957 241.735 161.299 242.896 161.794 243.847C162.289 244.798 163.031 245.274 164.02 245.274C165.77 245.274 166.778 244.19 167.045 242.021C167.311 239.852 167.482 236.37 167.558 231.575C167.558 227.846 168.243 224.955 169.613 222.9C170.983 220.845 172.467 219.361 174.065 218.448C175.968 217.382 178.137 216.773 180.572 216.621C184.377 216.469 187.364 217.021 189.533 218.276C191.702 219.532 193.396 220.959 194.613 222.557C195.983 224.46 196.934 226.629 197.467 229.064C198.304 233.097 198.59 236.941 198.323 240.594C198.057 244.247 197.62 247.519 197.011 250.411C196.25 253.76 195.26 256.918 194.043 259.886C192.597 263.235 190.58 266.203 187.992 268.79C186.851 269.931 185.557 271.035 184.111 272.101C182.665 273.166 180.991 274.098 179.088 274.897C177.185 275.696 175.093 276.324 172.81 276.781C170.527 277.238 167.977 277.428 165.161 277.352C159.225 277.199 154.335 276.495 150.492 275.24C146.649 273.984 143.586 272.633 141.303 271.187C138.639 269.513 136.622 267.611 135.252 265.48C132.893 262.055 131.333 258.25 130.572 254.064C129.811 249.878 129.469 245.959 129.545 242.306C129.545 238.044 129.963 233.744 130.8 229.406C131.637 225.677 133.007 222.9 134.91 221.073C136.813 219.246 138.753 218.029 140.732 217.42C143.015 216.659 145.489 216.431 148.152 216.735ZM282.171 249.155C282.323 253.646 281.904 257.717 280.915 261.37C280.458 262.968 279.868 264.547 279.145 266.107C278.422 267.668 277.452 269.114 276.235 270.445C275.017 271.777 273.59 272.938 271.954 273.927C270.317 274.916 268.358 275.601 266.075 275.982C266.075 275.982 265.618 276.02 264.705 276.096C263.792 276.172 262.631 276.134 261.223 275.982C259.815 275.83 258.293 275.507 256.657 275.012C255.02 274.517 253.479 273.68 252.034 272.5C250.588 271.321 249.351 269.742 248.323 267.763C247.296 265.784 246.706 263.273 246.554 260.228C246.249 257.26 245.945 254.597 245.641 252.238C245.26 250.259 244.842 248.413 244.385 246.701C243.928 244.988 243.32 244.132 242.559 244.132C242.787 246.948 242.92 249.383 242.958 251.438C242.996 253.493 242.977 255.244 242.901 256.69C242.825 258.364 242.749 259.81 242.673 261.028C242.292 263.843 241.417 266.355 240.047 268.562C238.906 270.465 237.212 272.215 234.967 273.813C232.722 275.411 229.621 276.248 225.664 276.324C223.761 276.324 222.068 276.115 220.584 275.696C219.1 275.278 217.787 274.688 216.645 273.927C215.504 273.166 214.495 272.31 213.62 271.359C212.745 270.408 212.003 269.437 211.394 268.448C209.948 266.089 208.921 263.425 208.312 260.457C207.779 258.402 207.361 256.043 207.056 253.379C206.752 251.096 206.562 248.356 206.485 245.16C206.409 241.963 206.561 238.31 206.942 234.201C207.323 231.004 208.198 228.112 209.568 225.525C210.101 224.46 210.785 223.394 211.622 222.329C212.459 221.264 213.449 220.293 214.591 219.418C215.732 218.543 217.045 217.82 218.529 217.249C220.013 216.678 221.706 216.317 223.609 216.164C226.958 215.936 229.716 216.088 231.885 216.621C234.054 217.154 235.824 217.858 237.193 218.733C238.563 219.608 239.61 220.56 240.333 221.587C241.056 222.614 241.683 223.585 242.216 224.498C249.065 220.769 255.306 219.018 260.938 219.247C263.297 219.323 265.656 219.837 268.015 220.788C270.374 221.739 272.524 223.337 274.465 225.582C276.406 227.827 278.061 230.853 279.431 234.658C280.801 238.463 281.714 243.295 282.171 249.155ZM362.764 271.986C360.785 274.041 358.674 275.24 356.429 275.582C354.184 275.925 352.072 275.887 350.093 275.468C348.114 275.049 346.478 274.498 345.184 273.813C343.891 273.128 343.244 272.786 343.244 272.786C340.276 274.308 337.003 275.487 333.426 276.324C329.849 277.161 326.216 277.656 322.525 277.808C318.834 277.961 315.238 277.732 311.737 277.123C308.236 276.514 305.116 275.487 302.376 274.041C300.549 272.976 298.837 271.72 297.239 270.274C295.869 268.98 294.48 267.401 293.072 265.537C291.665 263.672 290.656 261.446 290.047 258.859C289.438 256.5 289.039 253.893 288.849 251.039C288.658 248.185 288.791 245.274 289.248 242.306C289.705 239.338 290.542 236.465 291.76 233.687C292.977 230.91 294.728 228.455 297.011 226.324C300.512 223.052 304.184 220.883 308.027 219.817C311.87 218.752 315.428 218.219 318.7 218.219C322.505 218.295 326.235 218.866 329.888 219.932C329.051 214.224 328.936 209.125 329.545 204.635C329.774 202.732 330.192 200.849 330.801 198.984C331.41 197.119 332.266 195.464 333.369 194.018C334.473 192.572 335.881 191.411 337.593 190.536C339.306 189.661 341.38 189.224 343.815 189.224C345.946 189.224 347.848 189.528 349.522 190.137C351.197 190.746 352.681 191.545 353.974 192.534C355.268 193.523 356.391 194.646 357.342 195.902C358.293 197.157 359.073 198.432 359.682 199.726C361.128 202.77 362.079 206.271 362.536 210.228C362.993 214.414 363.221 218.752 363.221 223.242C363.221 227.123 362.974 231.442 362.479 236.199C361.984 240.955 361.09 245.73 359.796 250.525C362.003 251.59 363.659 253.036 364.762 254.863C365.865 256.69 366.493 258.63 366.646 260.685C366.798 262.74 366.532 264.775 365.847 266.792C365.162 268.809 364.134 270.54 362.764 271.986ZM329.317 243.676C328.023 243.676 326.9 244.171 325.949 245.16C324.998 246.149 324.598 247.253 324.751 248.47C324.903 250.069 325.379 251.172 326.178 251.781C326.977 252.39 328.023 252.694 329.317 252.694C330.61 252.694 331.676 252.314 332.513 251.553C333.35 250.792 333.769 249.764 333.769 248.47C333.769 247.253 333.388 246.149 332.627 245.16C331.866 244.171 330.763 243.676 329.317 243.676ZM431.144 262.169C429.926 264.376 428.499 266.298 426.863 267.934C425.226 269.57 423.647 270.921 422.125 271.986C420.375 273.28 418.587 274.308 416.76 275.069C415.238 275.678 413.773 276.153 412.365 276.496C410.957 276.838 409.72 277.085 408.655 277.238C407.361 277.466 406.219 277.58 405.23 277.58C401.045 277.58 397.373 277.161 394.214 276.324C391.056 275.487 388.297 274.403 385.938 273.071C383.579 271.739 381.581 270.198 379.945 268.448C378.308 266.697 376.995 264.909 376.006 263.082C373.495 258.897 372.125 254.064 371.897 248.585C371.897 244.171 372.373 240.347 373.324 237.112C374.275 233.877 375.531 231.1 377.091 228.779C378.651 226.458 380.439 224.536 382.456 223.014C384.473 221.492 386.509 220.274 388.564 219.361C393.434 217.23 398.989 216.278 405.23 216.507C408.883 216.507 412.118 216.926 414.933 217.763C417.749 218.6 420.203 219.703 422.296 221.073C424.389 222.443 426.14 223.984 427.548 225.696C428.955 227.409 430.116 229.178 431.029 231.005C433.16 235.19 434.378 239.985 434.682 245.388C434.682 248.965 434.359 252.124 433.712 254.863C433.065 257.603 432.209 260.038 431.144 262.169ZM404.545 244.132C403.252 244.132 402.129 244.627 401.178 245.617C400.227 246.606 399.827 247.71 399.979 248.927C400.131 250.525 400.607 251.629 401.406 252.238C402.205 252.847 403.252 253.151 404.545 253.151C405.839 253.151 406.905 252.77 407.742 252.009C408.579 251.248 408.997 250.221 408.997 248.927C408.997 247.71 408.617 246.606 407.856 245.617C407.095 244.627 405.991 244.132 404.545 244.132ZM541.989 226.781C539.63 226.4 537.499 226.362 535.596 226.667C533.998 226.971 532.514 227.618 531.144 228.607C529.774 229.596 529.013 231.309 528.861 233.744C528.784 235.571 529.203 237.169 530.116 238.539C530.953 239.68 532.285 240.651 534.112 241.45C535.939 242.249 538.678 242.458 542.331 242.078C545.756 241.697 548.838 241.849 551.578 242.534C552.719 242.839 553.88 243.257 555.059 243.79C556.239 244.323 557.305 245.065 558.256 246.016C559.207 246.967 560.044 248.147 560.767 249.555C561.49 250.963 561.966 252.618 562.194 254.521C562.346 256.804 562.156 259.011 561.623 261.142C561.166 262.968 560.31 264.909 559.055 266.964C557.799 269.019 555.839 270.769 553.176 272.215C550.36 273.737 546.973 274.84 543.016 275.525C539.591 276.134 535.406 276.363 530.459 276.21C525.512 276.058 519.69 275.069 512.993 273.242C508.274 271.72 504.089 269.285 500.436 265.936C498.838 264.49 497.297 262.797 495.813 260.856C494.329 258.915 493.016 256.632 491.874 254.007C490.733 251.382 489.839 248.395 489.192 245.046C488.545 241.697 488.297 237.968 488.45 233.859C488.526 227.922 489.591 222.367 491.646 217.192C492.559 214.985 493.72 212.759 495.128 210.514C496.536 208.269 498.324 206.157 500.493 204.178C502.662 202.199 505.211 200.411 508.141 198.813C511.071 197.214 514.515 195.959 518.472 195.046C522.353 194.133 526.387 193.638 530.573 193.562C534.074 193.485 537.936 193.809 542.16 194.532C546.383 195.255 550.474 196.796 554.431 199.155C556.486 200.601 558.123 202.351 559.34 204.406C559.873 205.319 560.329 206.328 560.71 207.432C561.091 208.535 561.338 209.734 561.452 211.027C561.566 212.321 561.509 213.729 561.281 215.251C561.052 216.773 560.558 218.409 559.797 220.16C558.96 221.91 557.78 223.356 556.258 224.498C554.964 225.487 553.157 226.286 550.836 226.895C548.515 227.504 545.566 227.466 541.989 226.781ZM592.217 216.849C596.25 216.469 599.561 216.678 602.148 217.477C604.736 218.276 606.772 219.247 608.256 220.388C609.74 221.529 610.786 222.652 611.395 223.756C612.004 224.859 612.346 225.525 612.422 225.753C612.422 225.677 612.631 225.125 613.05 224.098C613.469 223.071 614.173 221.948 615.162 220.731C616.151 219.513 617.483 218.428 619.158 217.477C620.832 216.526 622.925 216.05 625.436 216.05C627.567 216.05 629.432 216.469 631.03 217.306C632.628 218.143 634.036 219.247 635.254 220.616C636.471 221.986 637.499 223.546 638.336 225.297C639.173 227.047 639.858 228.835 640.391 230.662C641.684 234.924 642.407 239.757 642.56 245.16C642.788 249.498 642.712 253.284 642.331 256.518C641.95 259.753 641.399 262.531 640.676 264.852C639.953 267.173 639.096 269.113 638.107 270.674C637.118 272.234 636.09 273.471 635.025 274.384C632.514 276.591 629.584 277.618 626.235 277.466C624.18 277.542 622.24 277.2 620.413 276.439C618.891 275.83 617.407 274.783 615.961 273.299C614.515 271.815 613.602 269.627 613.222 266.735C612.461 269.018 611.091 270.959 609.112 272.557C607.438 273.927 605.079 275.107 602.034 276.096C598.99 277.085 594.957 277.276 589.934 276.667C585.824 276.21 582.171 274.993 578.975 273.014C577.605 272.177 576.254 271.111 574.922 269.817C573.591 268.524 572.411 266.926 571.384 265.023C570.356 263.12 569.538 260.913 568.929 258.402C568.32 255.891 568.016 252.999 568.016 249.726C567.864 244.018 568.587 238.843 570.185 234.201C570.87 232.222 571.783 230.263 572.925 228.322C574.066 226.381 575.512 224.612 577.263 223.014C579.013 221.415 581.106 220.064 583.541 218.961C585.976 217.858 588.868 217.154 592.217 216.849ZM607.4 243.676C606.106 243.676 604.983 244.171 604.032 245.16C603.081 246.149 602.681 247.253 602.833 248.47C602.986 250.069 603.461 251.172 604.26 251.781C605.059 252.39 606.106 252.694 607.4 252.694C608.693 252.694 609.759 252.314 610.596 251.553C611.433 250.792 611.852 249.764 611.852 248.47C611.852 247.253 611.471 246.149 610.71 245.16C609.949 244.171 608.846 243.676 607.4 243.676ZM724.752 249.155C724.904 253.646 724.485 257.717 723.496 261.37C723.039 262.968 722.449 264.547 721.726 266.107C721.003 267.668 720.033 269.114 718.815 270.445C717.598 271.777 716.171 272.938 714.535 273.927C712.898 274.916 710.939 275.601 708.656 275.982C708.656 275.982 708.199 276.02 707.286 276.096C706.373 276.172 705.212 276.134 703.804 275.982C702.396 275.83 700.874 275.507 699.238 275.012C697.601 274.517 696.06 273.68 694.614 272.5C693.169 271.321 691.932 269.742 690.904 267.763C689.877 265.784 689.287 263.273 689.135 260.228C688.83 257.26 688.526 254.597 688.222 252.238C687.841 250.259 687.423 248.413 686.966 246.701C686.509 244.988 685.901 244.132 685.14 244.132C685.368 246.948 685.501 249.383 685.539 251.438C685.577 253.493 685.558 255.244 685.482 256.69C685.406 258.364 685.33 259.81 685.254 261.028C684.873 263.843 683.998 266.355 682.628 268.562C681.487 270.465 679.793 272.215 677.548 273.813C675.303 275.411 672.202 276.248 668.245 276.324C666.342 276.324 664.649 276.115 663.165 275.696C661.681 275.278 660.368 274.688 659.226 273.927C658.085 273.166 657.076 272.31 656.201 271.359C655.326 270.408 654.584 269.437 653.975 268.448C652.529 266.089 651.502 263.425 650.893 260.457C650.36 258.402 649.942 256.043 649.637 253.379C649.333 251.096 649.143 248.356 649.066 245.16C648.99 241.963 649.142 238.31 649.523 234.201C649.904 231.004 650.779 228.112 652.149 225.525C652.682 224.46 653.366 223.394 654.203 222.329C655.04 221.264 656.03 220.293 657.171 219.418C658.313 218.543 659.626 217.82 661.11 217.249C662.594 216.678 664.287 216.317 666.19 216.164C669.539 215.936 672.297 216.088 674.466 216.621C676.635 217.154 678.404 217.858 679.774 218.733C681.144 219.608 682.191 220.56 682.914 221.587C683.637 222.614 684.264 223.585 684.797 224.498C691.646 220.769 697.887 219.018 703.519 219.247C705.878 219.323 708.237 219.837 710.596 220.788C712.955 221.739 715.105 223.337 717.046 225.582C718.987 227.827 720.642 230.853 722.012 234.658C723.382 238.463 724.295 243.295 724.752 249.155ZM761.395 199.726C761.548 201.4 761.339 203.036 760.768 204.635C760.197 206.233 759.359 207.66 758.256 208.916C757.153 210.171 755.802 211.199 754.204 211.998C752.605 212.797 750.855 213.31 748.952 213.539C746.973 213.767 745.128 213.634 743.416 213.139C741.703 212.644 740.162 211.902 738.793 210.913C737.423 209.924 736.3 208.725 735.425 207.317C734.55 205.909 733.998 204.33 733.77 202.58C733.617 200.905 733.827 199.288 734.398 197.728C734.969 196.168 735.825 194.76 736.966 193.505C738.107 192.249 739.477 191.202 741.076 190.365C742.674 189.528 744.424 188.996 746.327 188.767C748.23 188.539 750.037 188.672 751.749 189.167C753.462 189.662 755.003 190.404 756.373 191.393C757.742 192.382 758.884 193.6 759.797 195.046C760.71 196.492 761.243 198.052 761.395 199.726ZM766.304 263.881C765.695 267.306 764.516 269.912 762.765 271.701C761.015 273.49 759.227 274.802 757.4 275.639C755.193 276.552 752.833 277.047 750.322 277.123C747.05 277.276 744.386 276.838 742.331 275.811C740.276 274.784 738.64 273.623 737.423 272.329C736.053 270.883 734.949 269.171 734.112 267.192C732.59 263.083 731.696 258.84 731.43 254.464C731.163 250.088 731.22 246.073 731.601 242.42C731.982 238.235 732.667 234.125 733.656 230.091C734.569 226.59 735.92 223.946 737.708 222.158C739.497 220.369 741.266 219.056 743.016 218.219C745.071 217.306 747.24 216.811 749.523 216.735C753.024 216.583 755.859 217.173 758.028 218.505C760.197 219.836 761.928 221.377 763.222 223.128C764.668 225.107 765.733 227.466 766.418 230.206C766.951 232.717 767.369 235.647 767.674 238.995C767.902 241.887 767.959 245.407 767.845 249.555C767.731 253.702 767.217 258.478 766.304 263.881ZM850.893 249.155C851.046 253.646 850.627 257.717 849.638 261.37C849.181 262.968 848.591 264.547 847.868 266.107C847.145 267.668 846.175 269.114 844.957 270.445C843.74 271.777 842.313 272.938 840.676 273.927C839.04 274.916 837.08 275.601 834.797 275.982C834.797 275.982 834.341 276.02 833.428 276.096C832.515 276.172 831.354 276.134 829.946 275.982C828.538 275.83 827.016 275.507 825.38 275.012C823.743 274.517 822.202 273.68 820.756 272.5C819.31 271.321 818.073 269.742 817.046 267.763C816.019 265.784 815.429 263.273 815.277 260.228C814.972 257.26 814.668 254.597 814.364 252.238C813.983 250.259 813.565 248.413 813.108 246.701C812.651 244.988 812.042 244.132 811.281 244.132C811.51 246.948 811.643 249.383 811.681 251.438C811.719 253.493 811.7 255.244 811.624 256.69C811.548 258.364 811.472 259.81 811.396 261.028C811.015 263.843 810.14 266.355 808.77 268.562C807.629 270.465 805.935 272.215 803.69 273.813C801.445 275.411 798.343 276.248 794.386 276.324C792.483 276.324 790.79 276.115 789.306 275.696C787.822 275.278 786.509 274.688 785.368 273.927C784.227 273.166 783.218 272.31 782.343 271.359C781.468 270.408 780.726 269.437 780.117 268.448C778.671 266.089 777.644 263.425 777.035 260.457C776.502 258.402 776.084 256.043 775.779 253.379C775.474 251.096 775.284 248.356 775.208 245.16C775.132 241.963 775.284 238.31 775.665 234.201C776.046 231.004 776.921 228.112 778.29 225.525C778.823 224.46 779.508 223.394 780.345 222.329C781.182 221.264 782.172 220.293 783.313 219.418C784.455 218.543 785.768 217.82 787.252 217.249C788.736 216.678 790.429 216.317 792.332 216.164C795.68 215.936 798.439 216.088 800.608 216.621C802.777 217.154 804.546 217.858 805.916 218.733C807.286 219.608 808.332 220.56 809.055 221.587C809.778 222.614 810.406 223.585 810.939 224.498C817.788 220.769 824.029 219.018 829.66 219.247C832.019 219.323 834.379 219.837 836.738 220.788C839.097 221.739 841.247 223.337 843.188 225.582C845.129 227.827 846.784 230.853 848.154 234.658C849.523 238.463 850.436 243.295 850.893 249.155ZM914.478 262.169C913.26 264.376 911.833 266.298 910.197 267.934C908.561 269.57 906.982 270.921 905.46 271.986C903.709 273.28 901.921 274.308 900.094 275.069C898.572 275.678 897.107 276.153 895.699 276.496C894.291 276.838 893.054 277.085 891.989 277.238C890.696 277.466 889.554 277.58 888.565 277.58C884.379 277.58 880.707 277.161 877.549 276.324C874.39 275.487 871.631 274.403 869.272 273.071C866.913 271.739 864.916 270.198 863.279 268.448C861.643 266.697 860.33 264.909 859.341 263.082C856.83 258.897 855.46 254.064 855.231 248.585C855.231 244.171 855.707 240.347 856.658 237.112C857.609 233.877 858.865 231.1 860.425 228.779C861.985 226.458 863.774 224.536 865.791 223.014C867.808 221.492 869.843 220.274 871.898 219.361C876.769 217.23 882.324 216.278 888.565 216.507C892.218 216.507 895.452 216.926 898.268 217.763C901.084 218.6 903.538 219.703 905.631 221.073C907.724 222.443 909.474 223.984 910.882 225.696C912.29 227.409 913.451 229.178 914.364 231.005C916.495 235.19 917.712 239.985 918.017 245.388C918.017 248.965 917.693 252.124 917.046 254.863C916.399 257.603 915.543 260.038 914.478 262.169ZM887.88 244.132C886.586 244.132 885.463 244.627 884.512 245.617C883.561 246.606 883.161 247.71 883.313 248.927C883.466 250.525 883.941 251.629 884.74 252.238C885.539 252.847 886.586 253.151 887.88 253.151C889.173 253.151 890.239 252.77 891.076 252.009C891.913 251.248 892.332 250.221 892.332 248.927C892.332 247.71 891.951 246.606 891.19 245.617C890.429 244.627 889.326 244.132 887.88 244.132Z"
      fill="white" stroke="white" stroke-width="9.57" stroke-linecap="round" stroke-linejoin="round" />
  </mask>
  <g mask="url(#mask1_0_1)">
    <path d="M928.964 183.64H10.5341V288.984H928.964V183.64Z" fill="#F8971D" />
  </g>
  <mask id="mask2_0_1" style="mask-type:luminance" maskUnits="userSpaceOnUse" x="0" y="173"
    width="940" height="127">
    <path d="M939.499 173.105H0V299.518H939.499V173.105Z" fill="black" />
    <path
      d="M47.695 193.676C51.0437 193.676 53.8787 194.228 56.2 195.331C58.5214 196.434 60.4431 197.842 61.9651 199.555C63.4871 201.267 64.6664 203.131 65.503 205.148C66.3404 207.165 66.9684 209.068 67.3871 210.856C67.8057 212.645 68.053 214.205 68.129 215.537C68.205 216.868 68.2431 217.686 68.2431 217.991C68.3191 217.458 68.4714 216.488 68.7 215.08C68.928 213.672 69.3467 212.055 69.9561 210.228C70.5647 208.402 71.3637 206.5 72.353 204.521C73.3424 202.542 74.6171 200.734 76.1771 199.098C77.7371 197.462 79.6207 196.111 81.828 195.046C84.0347 193.98 86.6601 193.447 89.7041 193.447C93.4334 193.447 96.6871 194.36 99.4651 196.187C102.242 198.014 104.544 200.03 106.371 202.237C108.502 204.749 110.328 207.641 111.851 210.913C113.906 215.708 115.485 220.483 116.588 225.24C117.691 229.996 118.509 234.315 119.042 238.196C119.651 242.763 119.994 247.139 120.07 251.324C120.146 254.521 119.975 257.337 119.556 259.772C119.137 262.207 118.548 264.3 117.787 266.05C117.026 267.801 116.131 269.266 115.104 270.445C114.077 271.625 112.992 272.595 111.851 273.356C109.263 275.107 106.295 276.02 102.946 276.096C99.9781 276.096 97.3717 275.582 95.127 274.555C92.8817 273.528 90.9411 272.158 89.3051 270.445C87.6691 268.733 86.2991 266.792 85.1951 264.623C84.0917 262.454 83.1977 260.228 82.513 257.945C80.8384 252.618 79.9631 246.568 79.8871 239.795C79.5064 244.285 78.7264 247.671 77.547 249.954C76.367 252.237 75.1304 253.836 73.837 254.749C72.315 255.89 70.6407 256.385 68.8141 256.233C65.8461 256.233 63.5247 255.377 61.85 253.664C60.176 251.952 58.9204 250.031 58.083 247.9C57.0937 245.465 56.4851 242.687 56.2571 239.566C56.2571 244.209 55.9717 248.299 55.4011 251.838C54.8304 255.377 54.0884 258.421 53.1751 260.97C52.2617 263.52 51.2151 265.67 50.0351 267.42C48.8557 269.171 47.6571 270.617 46.4391 271.758C43.5477 274.345 40.2754 275.791 36.6221 276.096C33.7301 276.096 31.2377 275.754 29.1451 275.069C27.0524 274.384 25.245 273.489 23.723 272.386C22.2004 271.283 20.9444 270.008 19.9551 268.562C18.9657 267.116 18.1667 265.632 17.558 264.11C16.188 260.533 15.5031 256.499 15.5031 252.009C15.5031 245.845 15.9407 240.194 16.8161 235.057C17.6914 229.92 18.6617 225.487 19.7271 221.758C21.0211 217.42 22.4671 213.501 24.0651 210C26.0437 205.434 28.4031 202.028 31.1431 199.783C33.8824 197.538 36.4697 195.959 38.905 195.046C41.797 193.98 44.727 193.523 47.695 193.676ZM148.152 216.735C150.359 217.04 152.338 217.763 154.088 218.904C155.61 219.893 156.999 221.377 158.255 223.356C159.51 225.335 160.214 228.074 160.367 231.575C160.367 232.869 160.386 234.315 160.424 235.913C160.462 237.512 160.576 238.996 160.766 240.365C160.957 241.735 161.299 242.896 161.794 243.847C162.289 244.798 163.031 245.274 164.02 245.274C165.77 245.274 166.778 244.19 167.045 242.021C167.311 239.852 167.482 236.37 167.558 231.575C167.558 227.846 168.243 224.955 169.613 222.9C170.983 220.845 172.467 219.361 174.065 218.448C175.968 217.382 178.137 216.773 180.572 216.621C184.377 216.469 187.364 217.021 189.533 218.276C191.702 219.532 193.396 220.959 194.613 222.557C195.983 224.46 196.934 226.629 197.467 229.064C198.304 233.097 198.59 236.941 198.323 240.594C198.057 244.247 197.62 247.519 197.011 250.411C196.25 253.76 195.26 256.918 194.043 259.886C192.597 263.235 190.58 266.203 187.992 268.79C186.851 269.931 185.557 271.035 184.111 272.101C182.665 273.166 180.991 274.098 179.088 274.897C177.185 275.696 175.093 276.324 172.81 276.781C170.527 277.238 167.977 277.428 165.161 277.352C159.225 277.199 154.335 276.495 150.492 275.24C146.649 273.984 143.586 272.633 141.303 271.187C138.639 269.513 136.622 267.611 135.252 265.48C132.893 262.055 131.333 258.25 130.572 254.064C129.811 249.878 129.469 245.959 129.545 242.306C129.545 238.044 129.963 233.744 130.8 229.406C131.637 225.677 133.007 222.9 134.91 221.073C136.813 219.246 138.753 218.029 140.732 217.42C143.015 216.659 145.489 216.431 148.152 216.735ZM282.171 249.155C282.323 253.646 281.904 257.717 280.915 261.37C280.458 262.968 279.868 264.547 279.145 266.107C278.422 267.668 277.452 269.114 276.235 270.445C275.017 271.777 273.59 272.938 271.954 273.927C270.317 274.916 268.358 275.601 266.075 275.982C266.075 275.982 265.618 276.02 264.705 276.096C263.792 276.172 262.631 276.134 261.223 275.982C259.815 275.83 258.293 275.507 256.657 275.012C255.02 274.517 253.479 273.68 252.034 272.5C250.588 271.321 249.351 269.742 248.323 267.763C247.296 265.784 246.706 263.273 246.554 260.228C246.249 257.26 245.945 254.597 245.641 252.238C245.26 250.259 244.842 248.413 244.385 246.701C243.928 244.988 243.32 244.132 242.559 244.132C242.787 246.948 242.92 249.383 242.958 251.438C242.996 253.493 242.977 255.244 242.901 256.69C242.825 258.364 242.749 259.81 242.673 261.028C242.292 263.843 241.417 266.355 240.047 268.562C238.906 270.465 237.212 272.215 234.967 273.813C232.722 275.411 229.621 276.248 225.664 276.324C223.761 276.324 222.068 276.115 220.584 275.696C219.1 275.278 217.787 274.688 216.645 273.927C215.504 273.166 214.495 272.31 213.62 271.359C212.745 270.408 212.003 269.437 211.394 268.448C209.948 266.089 208.921 263.425 208.312 260.457C207.779 258.402 207.361 256.043 207.056 253.379C206.752 251.096 206.562 248.356 206.485 245.16C206.409 241.963 206.561 238.31 206.942 234.201C207.323 231.004 208.198 228.112 209.568 225.525C210.101 224.46 210.785 223.394 211.622 222.329C212.459 221.264 213.449 220.293 214.591 219.418C215.732 218.543 217.045 217.82 218.529 217.249C220.013 216.678 221.706 216.317 223.609 216.164C226.958 215.936 229.716 216.088 231.885 216.621C234.054 217.154 235.824 217.858 237.193 218.733C238.563 219.608 239.61 220.56 240.333 221.587C241.056 222.614 241.683 223.585 242.216 224.498C249.065 220.769 255.306 219.018 260.938 219.247C263.297 219.323 265.656 219.837 268.015 220.788C270.374 221.739 272.524 223.337 274.465 225.582C276.406 227.827 278.061 230.853 279.431 234.658C280.801 238.463 281.714 243.295 282.171 249.155ZM362.764 271.986C360.785 274.041 358.674 275.24 356.429 275.582C354.184 275.925 352.072 275.887 350.093 275.468C348.114 275.049 346.478 274.498 345.184 273.813C343.891 273.128 343.244 272.786 343.244 272.786C340.276 274.308 337.003 275.487 333.426 276.324C329.849 277.161 326.216 277.656 322.525 277.808C318.834 277.961 315.238 277.732 311.737 277.123C308.236 276.514 305.116 275.487 302.376 274.041C300.549 272.976 298.837 271.72 297.239 270.274C295.869 268.98 294.48 267.401 293.072 265.537C291.665 263.672 290.656 261.446 290.047 258.859C289.438 256.5 289.039 253.893 288.849 251.039C288.658 248.185 288.791 245.274 289.248 242.306C289.705 239.338 290.542 236.465 291.76 233.687C292.977 230.91 294.728 228.455 297.011 226.324C300.512 223.052 304.184 220.883 308.027 219.817C311.87 218.752 315.428 218.219 318.7 218.219C322.505 218.295 326.235 218.866 329.888 219.932C329.051 214.224 328.936 209.125 329.545 204.635C329.774 202.732 330.192 200.849 330.801 198.984C331.41 197.119 332.266 195.464 333.369 194.018C334.473 192.572 335.881 191.411 337.593 190.536C339.306 189.661 341.38 189.224 343.815 189.224C345.946 189.224 347.848 189.528 349.522 190.137C351.197 190.746 352.681 191.545 353.974 192.534C355.268 193.523 356.391 194.646 357.342 195.902C358.293 197.157 359.073 198.432 359.682 199.726C361.128 202.77 362.079 206.271 362.536 210.228C362.993 214.414 363.221 218.752 363.221 223.242C363.221 227.123 362.974 231.442 362.479 236.199C361.984 240.955 361.09 245.73 359.796 250.525C362.003 251.59 363.659 253.036 364.762 254.863C365.865 256.69 366.493 258.63 366.646 260.685C366.798 262.74 366.532 264.775 365.847 266.792C365.162 268.809 364.134 270.54 362.764 271.986ZM329.317 243.676C328.023 243.676 326.9 244.171 325.949 245.16C324.998 246.149 324.598 247.253 324.751 248.47C324.903 250.069 325.379 251.172 326.178 251.781C326.977 252.39 328.023 252.694 329.317 252.694C330.61 252.694 331.676 252.314 332.513 251.553C333.35 250.792 333.769 249.764 333.769 248.47C333.769 247.253 333.388 246.149 332.627 245.16C331.866 244.171 330.763 243.676 329.317 243.676ZM431.144 262.169C429.926 264.376 428.499 266.298 426.863 267.934C425.226 269.57 423.647 270.921 422.125 271.986C420.375 273.28 418.587 274.308 416.76 275.069C415.238 275.678 413.773 276.153 412.365 276.496C410.957 276.838 409.72 277.085 408.655 277.238C407.361 277.466 406.219 277.58 405.23 277.58C401.045 277.58 397.373 277.161 394.214 276.324C391.056 275.487 388.297 274.403 385.938 273.071C383.579 271.739 381.581 270.198 379.945 268.448C378.308 266.697 376.995 264.909 376.006 263.082C373.495 258.897 372.125 254.064 371.897 248.585C371.897 244.171 372.373 240.347 373.324 237.112C374.275 233.877 375.531 231.1 377.091 228.779C378.651 226.458 380.439 224.536 382.456 223.014C384.473 221.492 386.509 220.274 388.564 219.361C393.434 217.23 398.989 216.278 405.23 216.507C408.883 216.507 412.118 216.926 414.933 217.763C417.749 218.6 420.203 219.703 422.296 221.073C424.389 222.443 426.14 223.984 427.548 225.696C428.955 227.409 430.116 229.178 431.029 231.005C433.16 235.19 434.378 239.985 434.682 245.388C434.682 248.965 434.359 252.124 433.712 254.863C433.065 257.603 432.209 260.038 431.144 262.169ZM404.545 244.132C403.252 244.132 402.129 244.627 401.178 245.617C400.227 246.606 399.827 247.71 399.979 248.927C400.131 250.525 400.607 251.629 401.406 252.238C402.205 252.847 403.252 253.151 404.545 253.151C405.839 253.151 406.905 252.77 407.742 252.009C408.579 251.248 408.997 250.221 408.997 248.927C408.997 247.71 408.617 246.606 407.856 245.617C407.095 244.627 405.991 244.132 404.545 244.132ZM541.989 226.781C539.63 226.4 537.499 226.362 535.596 226.667C533.998 226.971 532.514 227.618 531.144 228.607C529.774 229.596 529.013 231.309 528.861 233.744C528.784 235.571 529.203 237.169 530.116 238.539C530.953 239.68 532.285 240.651 534.112 241.45C535.939 242.249 538.678 242.458 542.331 242.078C545.756 241.697 548.838 241.849 551.578 242.534C552.719 242.839 553.88 243.257 555.059 243.79C556.239 244.323 557.305 245.065 558.256 246.016C559.207 246.967 560.044 248.147 560.767 249.555C561.49 250.963 561.966 252.618 562.194 254.521C562.346 256.804 562.156 259.011 561.623 261.142C561.166 262.968 560.31 264.909 559.055 266.964C557.799 269.019 555.839 270.769 553.176 272.215C550.36 273.737 546.973 274.84 543.016 275.525C539.591 276.134 535.406 276.363 530.459 276.21C525.512 276.058 519.69 275.069 512.993 273.242C508.274 271.72 504.089 269.285 500.436 265.936C498.838 264.49 497.297 262.797 495.813 260.856C494.329 258.915 493.016 256.632 491.874 254.007C490.733 251.382 489.839 248.395 489.192 245.046C488.545 241.697 488.297 237.968 488.45 233.859C488.526 227.922 489.591 222.367 491.646 217.192C492.559 214.985 493.72 212.759 495.128 210.514C496.536 208.269 498.324 206.157 500.493 204.178C502.662 202.199 505.211 200.411 508.141 198.813C511.071 197.214 514.515 195.959 518.472 195.046C522.353 194.133 526.387 193.638 530.573 193.562C534.074 193.485 537.936 193.809 542.16 194.532C546.383 195.255 550.474 196.796 554.431 199.155C556.486 200.601 558.123 202.351 559.34 204.406C559.873 205.319 560.329 206.328 560.71 207.432C561.091 208.535 561.338 209.734 561.452 211.027C561.566 212.321 561.509 213.729 561.281 215.251C561.052 216.773 560.558 218.409 559.797 220.16C558.96 221.91 557.78 223.356 556.258 224.498C554.964 225.487 553.157 226.286 550.836 226.895C548.515 227.504 545.566 227.466 541.989 226.781ZM592.217 216.849C596.25 216.469 599.561 216.678 602.148 217.477C604.736 218.276 606.772 219.247 608.256 220.388C609.74 221.529 610.786 222.652 611.395 223.756C612.004 224.859 612.346 225.525 612.422 225.753C612.422 225.677 612.631 225.125 613.05 224.098C613.469 223.071 614.173 221.948 615.162 220.731C616.151 219.513 617.483 218.428 619.158 217.477C620.832 216.526 622.925 216.05 625.436 216.05C627.567 216.05 629.432 216.469 631.03 217.306C632.628 218.143 634.036 219.247 635.254 220.616C636.471 221.986 637.499 223.546 638.336 225.297C639.173 227.047 639.858 228.835 640.391 230.662C641.684 234.924 642.407 239.757 642.56 245.16C642.788 249.498 642.712 253.284 642.331 256.518C641.95 259.753 641.399 262.531 640.676 264.852C639.953 267.173 639.096 269.113 638.107 270.674C637.118 272.234 636.09 273.471 635.025 274.384C632.514 276.591 629.584 277.618 626.235 277.466C624.18 277.542 622.24 277.2 620.413 276.439C618.891 275.83 617.407 274.783 615.961 273.299C614.515 271.815 613.602 269.627 613.222 266.735C612.461 269.018 611.091 270.959 609.112 272.557C607.438 273.927 605.079 275.107 602.034 276.096C598.99 277.085 594.957 277.276 589.934 276.667C585.824 276.21 582.171 274.993 578.975 273.014C577.605 272.177 576.254 271.111 574.922 269.817C573.591 268.524 572.411 266.926 571.384 265.023C570.356 263.12 569.538 260.913 568.929 258.402C568.32 255.891 568.016 252.999 568.016 249.726C567.864 244.018 568.587 238.843 570.185 234.201C570.87 232.222 571.783 230.263 572.925 228.322C574.066 226.381 575.512 224.612 577.263 223.014C579.013 221.415 581.106 220.064 583.541 218.961C585.976 217.858 588.868 217.154 592.217 216.849ZM607.4 243.676C606.106 243.676 604.983 244.171 604.032 245.16C603.081 246.149 602.681 247.253 602.833 248.47C602.986 250.069 603.461 251.172 604.26 251.781C605.059 252.39 606.106 252.694 607.4 252.694C608.693 252.694 609.759 252.314 610.596 251.553C611.433 250.792 611.852 249.764 611.852 248.47C611.852 247.253 611.471 246.149 610.71 245.16C609.949 244.171 608.846 243.676 607.4 243.676ZM724.752 249.155C724.904 253.646 724.485 257.717 723.496 261.37C723.039 262.968 722.449 264.547 721.726 266.107C721.003 267.668 720.033 269.114 718.815 270.445C717.598 271.777 716.171 272.938 714.535 273.927C712.898 274.916 710.939 275.601 708.656 275.982C708.656 275.982 708.199 276.02 707.286 276.096C706.373 276.172 705.212 276.134 703.804 275.982C702.396 275.83 700.874 275.507 699.238 275.012C697.601 274.517 696.06 273.68 694.614 272.5C693.169 271.321 691.932 269.742 690.904 267.763C689.877 265.784 689.287 263.273 689.135 260.228C688.83 257.26 688.526 254.597 688.222 252.238C687.841 250.259 687.423 248.413 686.966 246.701C686.509 244.988 685.901 244.132 685.14 244.132C685.368 246.948 685.501 249.383 685.539 251.438C685.577 253.493 685.558 255.244 685.482 256.69C685.406 258.364 685.33 259.81 685.254 261.028C684.873 263.843 683.998 266.355 682.628 268.562C681.487 270.465 679.793 272.215 677.548 273.813C675.303 275.411 672.202 276.248 668.245 276.324C666.342 276.324 664.649 276.115 663.165 275.696C661.681 275.278 660.368 274.688 659.226 273.927C658.085 273.166 657.076 272.31 656.201 271.359C655.326 270.408 654.584 269.437 653.975 268.448C652.529 266.089 651.502 263.425 650.893 260.457C650.36 258.402 649.942 256.043 649.637 253.379C649.333 251.096 649.143 248.356 649.066 245.16C648.99 241.963 649.142 238.31 649.523 234.201C649.904 231.004 650.779 228.112 652.149 225.525C652.682 224.46 653.366 223.394 654.203 222.329C655.04 221.264 656.03 220.293 657.171 219.418C658.313 218.543 659.626 217.82 661.11 217.249C662.594 216.678 664.287 216.317 666.19 216.164C669.539 215.936 672.297 216.088 674.466 216.621C676.635 217.154 678.404 217.858 679.774 218.733C681.144 219.608 682.191 220.56 682.914 221.587C683.637 222.614 684.264 223.585 684.797 224.498C691.646 220.769 697.887 219.018 703.519 219.247C705.878 219.323 708.237 219.837 710.596 220.788C712.955 221.739 715.105 223.337 717.046 225.582C718.987 227.827 720.642 230.853 722.012 234.658C723.382 238.463 724.295 243.295 724.752 249.155ZM761.395 199.726C761.548 201.4 761.339 203.036 760.768 204.635C760.197 206.233 759.359 207.66 758.256 208.916C757.153 210.171 755.802 211.199 754.204 211.998C752.605 212.797 750.855 213.31 748.952 213.539C746.973 213.767 745.128 213.634 743.416 213.139C741.703 212.644 740.162 211.902 738.793 210.913C737.423 209.924 736.3 208.725 735.425 207.317C734.55 205.909 733.998 204.33 733.77 202.58C733.617 200.905 733.827 199.288 734.398 197.728C734.969 196.168 735.825 194.76 736.966 193.505C738.107 192.249 739.477 191.202 741.076 190.365C742.674 189.528 744.424 188.996 746.327 188.767C748.23 188.539 750.037 188.672 751.749 189.167C753.462 189.662 755.003 190.404 756.373 191.393C757.742 192.382 758.884 193.6 759.797 195.046C760.71 196.492 761.243 198.052 761.395 199.726ZM766.304 263.881C765.695 267.306 764.516 269.912 762.765 271.701C761.015 273.49 759.227 274.802 757.4 275.639C755.193 276.552 752.833 277.047 750.322 277.123C747.05 277.276 744.386 276.838 742.331 275.811C740.276 274.784 738.64 273.623 737.423 272.329C736.053 270.883 734.949 269.171 734.112 267.192C732.59 263.083 731.696 258.84 731.43 254.464C731.163 250.088 731.22 246.073 731.601 242.42C731.982 238.235 732.667 234.125 733.656 230.091C734.569 226.59 735.92 223.946 737.708 222.158C739.497 220.369 741.266 219.056 743.016 218.219C745.071 217.306 747.24 216.811 749.523 216.735C753.024 216.583 755.859 217.173 758.028 218.505C760.197 219.836 761.928 221.377 763.222 223.128C764.668 225.107 765.733 227.466 766.418 230.206C766.951 232.717 767.369 235.647 767.674 238.995C767.902 241.887 767.959 245.407 767.845 249.555C767.731 253.702 767.217 258.478 766.304 263.881ZM850.893 249.155C851.046 253.646 850.627 257.717 849.638 261.37C849.181 262.968 848.591 264.547 847.868 266.107C847.145 267.668 846.175 269.114 844.957 270.445C843.74 271.777 842.313 272.938 840.676 273.927C839.04 274.916 837.08 275.601 834.797 275.982C834.797 275.982 834.341 276.02 833.428 276.096C832.515 276.172 831.354 276.134 829.946 275.982C828.538 275.83 827.016 275.507 825.38 275.012C823.743 274.517 822.202 273.68 820.756 272.5C819.31 271.321 818.073 269.742 817.046 267.763C816.019 265.784 815.429 263.273 815.277 260.228C814.972 257.26 814.668 254.597 814.364 252.238C813.983 250.259 813.565 248.413 813.108 246.701C812.651 244.988 812.042 244.132 811.281 244.132C811.51 246.948 811.643 249.383 811.681 251.438C811.719 253.493 811.7 255.244 811.624 256.69C811.548 258.364 811.472 259.81 811.396 261.028C811.015 263.843 810.14 266.355 808.77 268.562C807.629 270.465 805.935 272.215 803.69 273.813C801.445 275.411 798.343 276.248 794.386 276.324C792.483 276.324 790.79 276.115 789.306 275.696C787.822 275.278 786.509 274.688 785.368 273.927C784.227 273.166 783.218 272.31 782.343 271.359C781.468 270.408 780.726 269.437 780.117 268.448C778.671 266.089 777.644 263.425 777.035 260.457C776.502 258.402 776.084 256.043 775.779 253.379C775.474 251.096 775.284 248.356 775.208 245.16C775.132 241.963 775.284 238.31 775.665 234.201C776.046 231.004 776.921 228.112 778.29 225.525C778.823 224.46 779.508 223.394 780.345 222.329C781.182 221.264 782.172 220.293 783.313 219.418C784.455 218.543 785.768 217.82 787.252 217.249C788.736 216.678 790.429 216.317 792.332 216.164C795.68 215.936 798.439 216.088 800.608 216.621C802.777 217.154 804.546 217.858 805.916 218.733C807.286 219.608 808.332 220.56 809.055 221.587C809.778 222.614 810.406 223.585 810.939 224.498C817.788 220.769 824.029 219.018 829.66 219.247C832.019 219.323 834.379 219.837 836.738 220.788C839.097 221.739 841.247 223.337 843.188 225.582C845.129 227.827 846.784 230.853 848.154 234.658C849.523 238.463 850.436 243.295 850.893 249.155ZM914.478 262.169C913.26 264.376 911.833 266.298 910.197 267.934C908.561 269.57 906.982 270.921 905.46 271.986C903.709 273.28 901.921 274.308 900.094 275.069C898.572 275.678 897.107 276.153 895.699 276.496C894.291 276.838 893.054 277.085 891.989 277.238C890.696 277.466 889.554 277.58 888.565 277.58C884.379 277.58 880.707 277.161 877.549 276.324C874.39 275.487 871.631 274.403 869.272 273.071C866.913 271.739 864.916 270.198 863.279 268.448C861.643 266.697 860.33 264.909 859.341 263.082C856.83 258.897 855.46 254.064 855.231 248.585C855.231 244.171 855.707 240.347 856.658 237.112C857.609 233.877 858.865 231.1 860.425 228.779C861.985 226.458 863.774 224.536 865.791 223.014C867.808 221.492 869.843 220.274 871.898 219.361C876.769 217.23 882.324 216.278 888.565 216.507C892.218 216.507 895.452 216.926 898.268 217.763C901.084 218.6 903.538 219.703 905.631 221.073C907.724 222.443 909.474 223.984 910.882 225.696C912.29 227.409 913.451 229.178 914.364 231.005C916.495 235.19 917.712 239.985 918.017 245.388C918.017 248.965 917.693 252.124 917.046 254.863C916.399 257.603 915.543 260.038 914.478 262.169ZM887.88 244.132C886.586 244.132 885.463 244.627 884.512 245.617C883.561 246.606 883.161 247.71 883.313 248.927C883.466 250.525 883.941 251.629 884.74 252.238C885.539 252.847 886.586 253.151 887.88 253.151C889.173 253.151 890.239 252.77 891.076 252.009C891.913 251.248 892.332 250.221 892.332 248.927C892.332 247.71 891.951 246.606 891.19 245.617C890.429 244.627 889.326 244.132 887.88 244.132Z"
      fill="white" />
  </mask>
  <g mask="url(#mask2_0_1)">
    <path d="M939.499 173.105H0V299.518H939.499V173.105Z" fill="#EE562A" />
  </g>
  <mask id="mask3_0_1" style="mask-type:luminance" maskUnits="userSpaceOnUse" x="426" y="40"
    width="88" height="82">
    <path d="M513.415 40.2427H426.084V121.785H513.415V40.2427Z" fill="black" />
    <path
      d="M483.547 43.505C480.093 45.6138 477.412 49.0681 477.412 51.2748C477.412 53.002 484.604 59.1376 486.811 59.3285C488.249 59.4263 488.44 58.4673 488.249 52.4246C488.152 48.6865 488.44 45.5208 488.827 45.5208C489.306 45.5208 490.167 48.207 490.745 51.4656C491.606 56.4515 491.513 57.797 490.363 59.6171C488.543 62.3963 486.145 62.3963 482.789 59.808C480.489 57.9878 480.293 57.9878 480.293 59.6171C480.293 62.1125 477.798 65.469 474.539 67.0983C473.003 67.8665 467.347 69.1141 461.882 69.8775C456.416 70.6456 450.374 71.9863 448.456 72.7545C443.661 74.7703 440.784 74.6725 437.716 72.275C432.632 68.3412 431.003 61.9168 433.782 57.0288C435.602 53.7701 435.509 52.2338 433.493 52.2338C427.739 52.2338 424.574 63.7418 428.317 71.1251C430.425 75.2498 434.932 79.4675 438.195 80.5243C440.015 81.1016 440.113 81.6741 439.536 88.9645C439.154 93.28 438 98.7453 437.041 101.05C435.025 105.747 434.643 113.615 436.272 118.312C437.231 121.091 437.613 121.287 441.929 121.287C444.517 121.287 446.915 120.905 447.203 120.328C448.064 118.987 445.956 115.533 444.326 115.533C443.269 115.533 442.888 114.476 442.888 111.887C442.888 108.913 443.558 107.572 446.342 104.886C451.328 100.091 453.725 96.5434 454.973 91.6506L456.123 87.2373L456.793 90.3051C457.464 93.0843 457.85 93.4708 460.629 93.4708C462.356 93.4708 465.615 94.1411 467.822 94.9093C472.998 96.7295 472.617 96.8273 472.617 93.6616C472.617 92.1253 473.194 90.2073 473.864 89.3461C474.823 88.0055 475.014 89.2483 475.205 97.0181C475.396 109.387 476.355 117.827 477.793 119.843C478.85 121.282 480.191 121.38 488.822 120.802C498.03 120.132 498.603 119.941 498.314 118.023C498.123 116.966 496.778 115.435 495.246 114.764L492.56 113.424L493.901 94.2438L490.544 96.4504C486.806 98.9457 486.038 101.148 486.038 109.974C486.038 114.099 485.749 115.537 484.888 115.249C484.027 114.96 483.64 113.042 483.738 109.593C483.929 99.8117 484.795 97.605 489.492 94.3464C491.792 92.717 494.865 89.7422 496.205 87.7312C498.505 84.3747 498.603 83.4157 498.314 74.3052C498.025 65.0038 498.123 64.4265 500.33 62.6994C501.578 61.7404 503.784 60.8792 505.316 60.8792C508.481 60.8792 511.647 58.193 512.508 54.7435C513.565 50.3302 512.699 48.8917 508.291 48.3192C505.702 48.0305 503.305 46.8807 501.387 45.0605C498.891 42.663 497.551 42.1835 492.467 41.8948C487.77 41.704 485.852 41.9926 483.547 43.5242V43.505Z"
      fill="white" />
    <path
      d="M456.411 96.5386C455.932 97.209 453.725 99.7043 451.616 102.102C447.878 106.417 447.878 106.515 448.739 111.114C450.08 118.209 451.807 120.323 456.314 120.323C458.329 120.323 460.341 119.843 460.629 119.364C461.588 117.734 460.341 115.048 458.041 114.089C454.782 112.651 454.684 108.433 457.752 104.881C460.918 101.045 463.124 96.7295 462.356 95.9613C461.3 94.9045 457.37 95.291 456.411 96.5386Z"
      fill="white" />
  </mask>
  <g mask="url(#mask3_0_1)">
    <path d="M513.415 40.2427H426.084V121.785H513.415V40.2427Z" fill="#FFF286" />
  </g>
</svg>
  